<?xml version="1.0" encoding="utf-8"?>
<!-- Generator: Adobe Illustrator 24.1.1, SVG Export Plug-In . SVG Version: 6.00 Build 0)  -->
<svg version="1.1" id="Layer_1" xmlns="http://www.w3.org/2000/svg" xmlns:xlink="http://www.w3.org/1999/xlink" x="0px" y="0px"
	 viewBox="0 0 140 32" style="enable-background:new 0 0 140 32;" xml:space="preserve">
<style type="text/css">
	.st0{fill:#1E4770;}
	.st1{fill:#017CC2;}
</style>
<g>
	<g>
		<path class="st0" d="M6.2,20c1.6-0.6,3.3-1.1,4.9-1.7c4.8-1.6,9.5-3.2,14.3-4.8c0.3-0.1,0.3-0.2,0.2-0.5c-1.1-3.3-3.3-5.4-6.6-6.4
			c-0.1,0-0.3-0.1-0.4-0.1c0.1,0,0.2-0.1,0.3-0.1c1.3-0.3,2.1-1.1,2.5-2.3C21.8,3.1,21.5,2,20.6,1c-0.4-0.5-1-0.7-1.5-1
			c1.6,0.2,3.2,0.7,4.6,1.4c4.6,2.3,7.5,6,8.6,11.1c0.2,1.1,0.3,2.2,0.3,3.4c0,1.3-1,2.6-2.3,3c-5.6,1.8-11.2,3.7-16.7,5.6
			c-0.1,0-0.2,0.1-0.2,0.1c-0.1,0-0.1,0-0.2,0c-1.5-0.6-2.8-1.5-3.8-2.8C8.6,20.6,7.6,20,6.2,20z"/>
		<path class="st1" d="M19.1,0.1c0.6,0.2,1.1,0.5,1.5,1c0.9,1,1.2,2.1,0.8,3.3c-0.4,1.2-1.2,2-2.5,2.3c-0.1,0-0.2,0.1-0.3,0.1
			c-0.9,0-1.8-0.2-2.8-0.1C13.2,6.8,11.1,8,9.4,10c-1.4,1.7-2.1,3.6-2.1,5.8c0,0.5,0.1,1-0.1,1.5c-0.4,1.7-1.9,2.8-3.7,2.6
			c-1.5-0.1-2.8-1.6-2.9-3.2C0.5,12.4,1.8,8.6,4.6,5.4C7.3,2.3,10.7,0.5,14.7,0C16.2-0.2,17.6-0.2,19.1,0.1z"/>
		<path class="st1" d="M6.2,20c1.4,0,2.5,0.6,3.3,1.7c1,1.3,2.3,2.2,3.8,2.8c0.1,0,0.1,0,0.2,0c0.6,0.3,1.3,0.4,1.9,0.6
			c0.7,0.1,1.3,0.1,2,0.1c1.7,0.2,3,1.6,2.9,3.4c0,1.7-1.3,3.1-3,3.2c-3,0.1-5.9-0.6-8.5-2.1c-1.9-1.1-3.5-2.6-4.9-4.3
			c-1.4-1.9-0.6-4.5,1.6-5.2C5.7,20.2,5.9,20.1,6.2,20z"/>
	</g>
	<g>
		<path class="st0" d="M78.9,11.6c1-1.8,2.2-2.4,3.7-1.8c0.6,0.2,1.1,0.7,1.4,1.6c0.2,0.5,0.3,0.6,0.5,0.1c0.8-1.6,1.9-2.1,3.2-1.8
			c1.3,0.3,2.1,1.7,2.1,3.8c0.1,3.2,0,6.4,0,9.6c0,0.3-0.1,0.5-0.3,0.5c-1.2,0.1-1.2,0.1-1.2-1.6c0-2.6,0-5.1,0-7.7
			c0-1-0.1-2-0.8-2.5c-0.8-0.5-1.5-0.4-2.2,0.4c-0.7,0.8-0.9,1.9-0.9,3.2c0,2.5,0,5,0,7.6c0,0.5-0.1,0.7-0.5,0.7c-1,0-1,0-1-1.5
			c0-2.6,0-5.2,0-7.8c0-1.6-0.4-2.4-1.2-2.6c-1-0.3-2,0.4-2.4,1.8C79,14.2,79,15.1,79,16c0,2.3,0,4.5,0,6.8c0,0.6-0.1,0.8-0.5,0.8
			c-1,0-1,0-1-1.6c0-3.8,0-7.6,0-11.3c0-0.6,0.1-0.9,0.5-0.8c0.8,0.1,0.8,0,0.8,1.2c0,0.1,0,0.2,0,0.4
			C78.8,11.5,78.9,11.5,78.9,11.6z"/>
		<path class="st0" d="M93.5,11.7c0.2-0.1,0.3-0.3,0.4-0.5c0.9-1.6,2.5-2.1,3.8-1.2c0.4,0.3,0.8,0.7,1,1.4c0.2,0.7,0.3,0.5,0.6,0
			c0.9-1.6,2-2.1,3.4-1.7c1,0.3,1.5,1.2,1.8,2.6c0.1,0.6,0.1,1.3,0.1,1.9c0,2.9,0,5.7,0,8.6c0,0.6-0.1,0.7-0.5,0.7c-1,0-1,0-1-1.5
			c0-2.6,0-5.1,0-7.7c0-1.7-0.4-2.5-1.3-2.8c-1.3-0.4-2.4,0.8-2.6,2.7c-0.1,0.5-0.1,1-0.1,1.5c0,2.4,0,4.7,0,7.1
			c0,0.5,0,0.7-0.4,0.7c-1.1,0-1.1,0-1.1-1.6c0-2.3,0-4.6,0-7c0-0.3,0-0.6,0-1c-0.1-1.6-0.5-2.3-1.2-2.5c-1-0.3-1.9,0.4-2.4,1.6
			c-0.2,0.7-0.3,1.4-0.3,2.2c0,2.5,0,4.9,0,7.4c0,0.6-0.1,0.8-0.5,0.8c-1,0-1,0-1-1.5c0-3.8,0-7.6,0-11.4c0-0.5,0-0.8,0.5-0.8
			c0.8,0,0.8,0,0.8,1.3C93.5,11.3,93.5,11.5,93.5,11.7z"/>
		<path class="st0" d="M111.3,17.3c-1,0-2,0-3,0c-0.3,0-0.4,0.1-0.4,0.6c0.1,1,0.3,1.9,0.7,2.7c0.9,1.8,3.4,2.1,4.2-0.7
			c0.2-0.7,0.4-0.8,0.9-0.6c0,0,0.1,0,0.1,0c0.9,0.2,0.9,0.2,0.5,1.4c-0.8,2.4-2.6,3.5-4.6,3c-1.9-0.5-3.1-2.5-3.3-5.6
			c-0.1-1.8-0.1-3.7,0.5-5.3c0.8-2.3,2.3-3.5,4.2-3.2c1.5,0.2,2.9,1.9,3.3,4.3c0.2,0.9,0.2,1.8,0.2,2.8c0,0.5-0.1,0.6-0.4,0.6
			C113.3,17.3,112.3,17.3,111.3,17.3z M110.6,15.4c0.5,0,1.1,0,1.6,0c1.1,0,1.1-0.1,0.7-1.7c-0.4-1.6-1.4-2.5-2.6-2.3
			c-1.1,0.1-2,1.5-2.2,3.2c-0.1,0.6,0,0.8,0.4,0.8C109.2,15.4,109.9,15.4,110.6,15.4z"/>
		<path class="st0" d="M135.8,17.3c-1,0-2,0-3,0c-0.2,0-0.4,0-0.4,0.5c0.1,2.7,1.4,4.4,3.1,4.2c0.9-0.1,1.6-0.9,1.9-2.1
			c0.2-0.6,0.4-0.7,0.7-0.6c0.1,0,0.2,0.1,0.3,0.1c0.8,0.1,0.8,0.1,0.4,1.2c-0.5,1.6-1.3,2.6-2.5,3.1c-1.9,0.8-3.9-0.2-4.9-2.5
			c-1.3-2.9-0.9-8.2,0.8-10.2c1.3-1.5,2.7-1.8,4.2-0.9c1.5,0.8,2.2,2.6,2.5,4.9c0.1,0.6,0.1,1.2,0.1,1.8c0,0.5-0.1,0.6-0.4,0.6
			C137.9,17.3,136.8,17.3,135.8,17.3z M135.1,15.4c0.7,0,1.5,0,2.2,0c0.2,0,0.3,0.1,0.3-0.4c-0.1-1.9-1.1-3.5-2.3-3.6
			c-1.5-0.1-2.7,1.4-2.8,3.5c0,0.4,0,0.5,0.3,0.5C133.6,15.4,134.4,15.4,135.1,15.4z"/>
		<path class="st0" d="M47.5,17.3c-1,0-2,0-3,0c-0.3,0-0.4,0-0.4,0.5c0.1,2.7,1.4,4.4,3.1,4.2c0.9-0.1,1.5-0.9,1.9-2.2
			c0.1-0.5,0.3-0.6,0.7-0.5c0.1,0,0.2,0,0.2,0.1c0.9,0.2,0.9,0.2,0.5,1.4c-0.5,1.4-1.2,2.4-2.3,2.8c-1.8,0.6-3.4,0.3-4.7-1.9
			c-1.4-2.5-1.4-7.7,0.1-10.1c1.2-1.9,2.7-2.4,4.3-1.7c1.6,0.6,2.5,2.3,2.8,4.7c0.1,0.7,0.1,1.5,0.2,2.2c0,0.4-0.1,0.6-0.4,0.6
			C49.6,17.3,48.6,17.3,47.5,17.3z M46.8,15.4c0.8,0,1.5,0,2.3,0c0.3,0,0.4-0.1,0.3-0.5c-0.1-1-0.3-1.9-0.8-2.5
			c-0.8-1.1-1.7-1.2-2.7-0.7c-1,0.6-1.4,1.8-1.6,3.3c0,0.4,0.1,0.4,0.3,0.4C45.3,15.4,46,15.4,46.8,15.4z"/>
		<path class="st0" d="M67.1,16.8c0-2.1,0.2-4,1.2-5.5c1.3-1.9,2.8-2.2,4.5-1.4c1.6,0.8,2.4,2.6,2.7,5c0.2,1.4,0.1,2.8-0.1,4.2
			c-0.4,2.8-2,4.7-4,4.7c-2,0.1-3.6-1.6-4.2-4.4C67.1,18.6,67.1,17.7,67.1,16.8z M68.6,16.7c0,1,0.1,2,0.3,2.9
			c0.4,1.6,1.4,2.5,2.5,2.4c1.1,0,2-1,2.4-2.5c0.4-1.7,0.4-3.5,0.1-5.3c-0.4-1.8-1.4-2.8-2.6-2.7c-1.1,0-2,1.2-2.4,2.9
			C68.6,15.1,68.6,15.9,68.6,16.7z"/>
		<path class="st0" d="M59.9,16.6c0,1.3,0.1,2.3,0.4,3.3c0.4,1.5,1.3,2.2,2.4,2.1c1-0.1,1.7-1,2-2.5c0.1-0.8,0.3-0.9,0.8-0.8
			c0.9,0.3,0.9,0.2,0.6,1.5c-0.6,2.3-1.7,3.5-3.3,3.6c-1.7,0.2-3.2-1-3.8-3.2c-0.8-2.8-0.8-5.7,0.2-8.3c0.9-2.3,2.4-2.9,4-2.7
			C64.5,9.9,65.5,11,66,13c0.1,0.6,0.1,1-0.4,0.9c-0.1,0-0.2,0-0.2,0.1c-0.5,0.2-0.7,0.1-0.9-0.7c-0.3-1.2-0.9-1.8-1.7-1.9
			c-1-0.1-1.9,0.5-2.4,1.9C59.9,14.4,59.9,15.6,59.9,16.6z"/>
		<path class="st0" d="M123.7,16.8c0,1.2,0.1,2.3,0.4,3.4c0.5,1.3,1.3,2,2.4,1.8c0.9-0.1,1.6-1,1.9-2.4c0.2-1,0.2-1,0.9-0.9
			c0.8,0.1,0.8,0.1,0.5,1.3c-0.5,2.3-1.8,3.7-3.4,3.8c-1.7,0.1-3.3-1.2-3.9-3.6c-0.6-2.5-0.6-5.1,0.1-7.6c0.6-2.1,2.2-3.3,3.8-3.2
			c1.7,0.2,2.8,1.3,3.3,3.5c0.1,0.6,0.1,0.9-0.4,0.9c0,0-0.1,0-0.1,0c-0.5,0.2-0.8,0.2-1-0.7c-0.3-1.2-0.9-1.8-1.8-1.8
			c-1.1,0-1.8,0.6-2.3,2C123.7,14.5,123.7,15.6,123.7,16.8z"/>
		<path class="st0" d="M118.1,11.8c0.2-0.3,0.3-0.7,0.5-1c0.7-1.3,1.9-1.7,2.8-0.6c0.4,0.6-0.2,1.2-0.2,1.8c0,0.3-0.2,0.3-0.3,0.2
			c-1.2-0.8-2.3,0-2.5,2.2c-0.2,1.3-0.1,2.7-0.1,4c0,1.5,0,3.1,0,4.6c0,0.4-0.1,0.6-0.3,0.6c-1.1,0-1.1,0.1-1.1-1.7
			c0-3.8,0-7.5,0-11.3c0-0.6,0.1-0.8,0.5-0.8c0.9,0.1,0.9,0,0.9,1.3C118,11.3,118,11.5,118.1,11.8C118.1,11.8,118.1,11.8,118.1,11.8
			z"/>
		<path class="st0" d="M54.7,17.8c-0.7,0-1.3,0-2,0c-0.3,0-0.3-0.1-0.3-0.5c0-1.8,0-1.8,1.1-1.8c1.1,0,2.1,0,3.2,0
			c0.3,0,0.4,0.1,0.4,0.6c0,1.7,0,1.7-1.1,1.7C55.5,17.8,55.1,17.8,54.7,17.8z"/>
	</g>
</g>
</svg>
